<?xml version="1.0" encoding="utf-8"?>
<!-- Generator: Adobe Illustrator 24.1.1, SVG Export Plug-In . SVG Version: 6.00 Build 0)  -->
<svg version="1.1" id="Layer_1" xmlns="http://www.w3.org/2000/svg" xmlns:xlink="http://www.w3.org/1999/xlink" x="0px" y="0px"
	 viewBox="0 0 512 512" style="enable-background:new 0 0 512 512;" xml:space="preserve">
<style type="text/css">
	.st0{fill:#34A853;}
	.st1{fill:#FFFFFF;}
</style>
<g>
	<circle class="st0" cx="256" cy="256" r="256"/>
	<path class="st1" d="M386.2,364.9l-81.5-81.5c11-15.2,17.6-33.6,17.6-53.6c0-51-41.4-92.4-92.4-92.4c-51.1,0-92.5,41.4-92.5,92.4
		c0,51.1,41.4,92.5,92.5,92.5c20,0,38.4-6.7,53.6-17.6l81.5,81.5L386.2,364.9z M165.9,229.8c0-35.4,28.6-64,64-64
		c35.4,0,64,28.6,64,64s-28.6,64-64,64C194.5,293.8,165.9,265.2,165.9,229.8z"/>
</g>
</svg>
